<?xml version="1.0" encoding="utf-8"?>
<!-- Generator: Adobe Illustrator 21.0.0, SVG Export Plug-In . SVG Version: 6.00 Build 0)  -->
<svg version="1.1" id="Layer_1" xmlns="http://www.w3.org/2000/svg" xmlns:xlink="http://www.w3.org/1999/xlink" x="0px" y="0px"
	 viewBox="0 0 1564.9 110.8" style="enable-background:new 0 0 1564.9 110.8;" xml:space="preserve">
<style type="text/css">
	.st0{fill:#F2F0DE;stroke:#F2F0DE;stroke-width:3.6082;stroke-miterlimit:10;}
	.st1{fill:none;stroke:#F2F0DE;stroke-width:4.2096;stroke-miterlimit:10;}
	.st2{fill:none;stroke:#F2F0DE;stroke-width:4.1382;stroke-miterlimit:10;}
</style>
<g>
	<line class="st0" x1="1464.5" y1="4.8" x2="1564.9" y2="4.8"/>
	<line class="st1" x1="1515" y1="4.6" x2="1515" y2="107.7"/>
	<line class="st0" x1="1085.4" y1="4.8" x2="1185.8" y2="4.8"/>
	<line class="st1" x1="943.6" y1="58.4" x2="1044" y2="58.4"/>
	<line class="st1" x1="1135.9" y1="4.6" x2="1135.9" y2="107.7"/>
	<line class="st0" x1="0" y1="4.8" x2="100.4" y2="4.8"/>
	<line class="st1" x1="50.5" y1="4.6" x2="50.5" y2="107.7"/>
	<path class="st1" d="M1427.9,34.3c0,0,2.7-31.4-40.8-31.7c-40.9-0.2-39.9,28-39.9,28s-3.5,26.3,38.7,23.3c43.2-3,47.7,18,46.5,28.1
		c-0.8,7.1-5.9,25.6-44.9,25.6c-40.1,0.1-40.7-28.2-40.3-33.9"/>
	<line class="st1" x1="1228.3" y1="2.9" x2="1228.3" y2="107.8"/>
	<line class="st1" x1="1042.1" y1="2.9" x2="1042.1" y2="107.8"/>
	<line class="st1" x1="945.3" y1="2.9" x2="945.3" y2="107.8"/>
	<line class="st1" x1="141.4" y1="58.4" x2="241.8" y2="58.4"/>
	<line class="st1" x1="239.9" y1="2.9" x2="239.9" y2="107.8"/>
	<line class="st1" x1="143.1" y1="2.9" x2="143.1" y2="107.8"/>
	<line class="st1" x1="742.3" y1="2.9" x2="742.3" y2="107.8"/>
	<line class="st1" x1="609.3" y1="2.9" x2="609.3" y2="107.8"/>
	<line class="st1" x1="477.5" y1="2.7" x2="477.5" y2="107.8"/>
	<line class="st1" x1="1226.3" y1="4.8" x2="1304.9" y2="4.8"/>
	<line class="st1" x1="1227.9" y1="53.5" x2="1299.6" y2="53.5"/>
	<line class="st1" x1="1226.2" y1="105.9" x2="1306.6" y2="105.9"/>
	<line class="st1" x1="298.2" y1="2.9" x2="298.2" y2="107.8"/>
	<line class="st1" x1="296.2" y1="4.8" x2="374.8" y2="4.8"/>
	<line class="st1" x1="297.8" y1="53.5" x2="369.5" y2="53.5"/>
	<line class="st1" x1="296.1" y1="105.9" x2="376.5" y2="105.9"/>
	<path class="st1" d="M609.1,5H661c16.8,0,30.5,13.7,30.5,30.5v0c0,16.8-14.1,29.8-31,29.8h-51.8"/>
	<line class="st1" x1="655.6" y1="64.9" x2="691.4" y2="107.9"/>
	<path class="st1" d="M477.9,52.1h56.1c14.8,0,26.8,12,26.8,26.8v0c0,14.8-12,26.8-26.8,26.8h-56.1"/>
	<path class="st1" d="M478,4.8h54.3c13,0,23.6,10.6,23.6,23.6v0c0,13-10.6,23.6-23.6,23.6h-49.4"/>
	<path class="st2" d="M892.6,41.1C889.5,21.5,874.1,2.5,843.8,3c-28.2,0.5-51.1,23.5-51.1,52.5s22.9,52.5,51.1,52.5
		c25.9,0,49.4-14.5,51.3-45.8h-59.5"/>
</g>
</svg>
